<svg width="477" height="422" viewBox="0 0 477 422" fill="none" xmlns="http://www.w3.org/2000/svg">
    <path
        d="M7.5 376.7C6.3 376.7 5.33333 376.433 4.6 375.9C3.93333 375.367 3.53333 374.633 3.4 373.7C3.26667 372.767 3.46667 371.733 4 370.6L31.3 308.8C31.9 307.4 32.6667 306.4 33.6 305.8C34.5333 305.133 35.5667 304.8 36.7 304.8C37.8333 304.8 38.8333 305.133 39.7 305.8C40.6333 306.4 41.4333 307.4 42.1 308.8L69.4 370.6C69.9333 371.733 70.1333 372.8 70 373.8C69.9333 374.733 69.5667 375.467 68.9 376C68.2333 376.467 67.3 376.7 66.1 376.7C64.7667 376.7 63.7 376.367 62.9 375.7C62.1 374.967 61.4 373.933 60.8 372.6L53.7 356L58 358.4H15.2L19.5 356L12.4 372.6C11.8 374.067 11.1333 375.133 10.4 375.8C9.66667 376.4 8.7 376.7 7.5 376.7ZM36.5 316L20.9 352.9L18.5 350.8H54.7L52.4 352.9L36.7 316H36.5ZM96.4398 376.9C91.4398 376.9 87.6398 375.433 85.0398 372.5C82.4398 369.5 81.1398 365.2 81.1398 359.6V309.4C81.1398 307.867 81.5398 306.733 82.3398 306C83.1398 305.2 84.2398 304.8 85.6398 304.8C87.1065 304.8 88.2398 305.2 89.0398 306C89.8398 306.733 90.2398 307.867 90.2398 309.4V358.9C90.2398 362.367 90.9398 364.967 92.3398 366.7C93.8065 368.367 95.8732 369.2 98.5398 369.2C99.1398 369.2 99.6732 369.2 100.14 369.2C100.607 369.133 101.073 369.067 101.54 369C102.273 368.933 102.807 369.133 103.14 369.6C103.473 370.067 103.64 371 103.64 372.4C103.64 373.667 103.34 374.667 102.74 375.4C102.207 376.067 101.307 376.5 100.04 376.7C99.4398 376.767 98.8398 376.8 98.2398 376.8C97.6398 376.867 97.0398 376.9 96.4398 376.9ZM116.218 376.5C114.818 376.5 113.718 376.067 112.918 375.2C112.118 374.333 111.718 373.133 111.718 371.6V331.7C111.718 330.1 112.118 328.9 112.918 328.1C113.718 327.233 114.818 326.8 116.218 326.8C117.685 326.8 118.818 327.233 119.618 328.1C120.418 328.9 120.818 330.1 120.818 331.7V371.6C120.818 373.133 120.418 374.333 119.618 375.2C118.885 376.067 117.751 376.5 116.218 376.5ZM116.218 316C114.418 316 112.985 315.533 111.918 314.6C110.918 313.6 110.418 312.3 110.418 310.7C110.418 308.967 110.918 307.667 111.918 306.8C112.985 305.867 114.418 305.4 116.218 305.4C118.151 305.4 119.585 305.867 120.518 306.8C121.518 307.667 122.018 308.967 122.018 310.7C122.018 312.3 121.518 313.6 120.518 314.6C119.585 315.533 118.151 316 116.218 316ZM140.648 376.7C139.248 376.7 138.148 376.3 137.348 375.5C136.548 374.7 136.148 373.533 136.148 372V331.2C136.148 329.667 136.548 328.533 137.348 327.8C138.148 327 139.248 326.6 140.648 326.6C142.048 326.6 143.115 327 143.848 327.8C144.648 328.533 145.048 329.667 145.048 331.2V339.7L143.948 337.9C145.215 334.233 147.248 331.4 150.048 329.4C152.915 327.4 156.315 326.4 160.248 326.4C164.382 326.4 167.715 327.4 170.248 329.4C172.782 331.333 174.482 334.3 175.348 338.3H173.948C175.148 334.633 177.282 331.733 180.348 329.6C183.482 327.467 187.115 326.4 191.248 326.4C194.915 326.4 197.915 327.133 200.248 328.6C202.648 330 204.448 332.133 205.648 335C206.848 337.8 207.448 341.4 207.448 345.8V372C207.448 373.533 207.048 374.7 206.248 375.5C205.448 376.3 204.348 376.7 202.948 376.7C201.482 376.7 200.348 376.3 199.548 375.5C198.748 374.7 198.348 373.533 198.348 372V346.2C198.348 341.933 197.615 338.8 196.148 336.8C194.682 334.8 192.215 333.8 188.748 333.8C184.948 333.8 181.915 335.133 179.648 337.8C177.448 340.4 176.348 344 176.348 348.6V372C176.348 373.533 175.948 374.7 175.148 375.5C174.415 376.3 173.315 376.7 171.848 376.7C170.382 376.7 169.248 376.3 168.448 375.5C167.648 374.7 167.248 373.533 167.248 372V346.2C167.248 341.933 166.515 338.8 165.048 336.8C163.582 334.8 161.115 333.8 157.648 333.8C153.848 333.8 150.815 335.133 148.548 337.8C146.348 340.4 145.248 344 145.248 348.6V372C145.248 375.133 143.715 376.7 140.648 376.7ZM245.081 376.9C239.815 376.9 235.281 375.9 231.481 373.9C227.748 371.833 224.848 368.933 222.781 365.2C220.715 361.4 219.681 356.933 219.681 351.8C219.681 346.733 220.681 342.3 222.681 338.5C224.748 334.7 227.548 331.733 231.081 329.6C234.681 327.467 238.781 326.4 243.381 326.4C246.648 326.4 249.581 326.967 252.181 328.1C254.848 329.167 257.115 330.733 258.981 332.8C260.848 334.867 262.248 337.4 263.181 340.4C264.181 343.333 264.681 346.667 264.681 350.4C264.681 351.467 264.348 352.3 263.681 352.9C263.081 353.433 262.181 353.7 260.981 353.7H226.781V347.9H258.681L256.981 349.3C256.981 345.833 256.448 342.9 255.381 340.5C254.381 338.033 252.881 336.167 250.881 334.9C248.948 333.633 246.515 333 243.581 333C240.381 333 237.648 333.767 235.381 335.3C233.115 336.767 231.381 338.867 230.181 341.6C228.981 344.267 228.381 347.367 228.381 350.9V351.5C228.381 357.5 229.815 362.033 232.681 365.1C235.548 368.167 239.681 369.7 245.081 369.7C247.215 369.7 249.381 369.433 251.581 368.9C253.848 368.367 256.015 367.4 258.081 366C259.081 365.4 259.981 365.133 260.781 365.2C261.648 365.2 262.348 365.467 262.881 366C263.415 366.467 263.748 367.067 263.881 367.8C264.015 368.467 263.915 369.2 263.581 370C263.248 370.8 262.615 371.5 261.681 372.1C259.481 373.633 256.848 374.833 253.781 375.7C250.781 376.5 247.881 376.9 245.081 376.9ZM280.999 376.7C279.599 376.7 278.499 376.3 277.699 375.5C276.899 374.7 276.499 373.533 276.499 372V331.2C276.499 329.667 276.899 328.533 277.699 327.8C278.499 327 279.599 326.6 280.999 326.6C282.399 326.6 283.466 327 284.199 327.8C284.999 328.533 285.399 329.667 285.399 331.2V339.4L284.299 337.9C285.699 334.1 287.966 331.233 291.099 329.3C294.299 327.367 297.933 326.4 301.999 326.4C305.933 326.4 309.166 327.1 311.699 328.5C314.233 329.9 316.133 332.033 317.399 334.9C318.666 337.767 319.299 341.4 319.299 345.8V372C319.299 373.533 318.899 374.7 318.099 375.5C317.366 376.3 316.266 376.7 314.799 376.7C313.333 376.7 312.199 376.3 311.399 375.5C310.599 374.7 310.199 373.533 310.199 372V346.3C310.199 341.967 309.366 338.8 307.699 336.8C306.033 334.8 303.366 333.8 299.699 333.8C295.433 333.8 291.999 335.133 289.399 337.8C286.866 340.4 285.599 343.933 285.599 348.4V372C285.599 375.133 284.066 376.7 280.999 376.7ZM354.426 376.9C350.492 376.9 347.192 376.2 344.526 374.8C341.926 373.4 339.959 371.367 338.626 368.7C337.359 366.033 336.726 362.767 336.726 358.9V334.3H330.326C329.126 334.3 328.192 334 327.526 333.4C326.859 332.733 326.526 331.867 326.526 330.8C326.526 329.667 326.859 328.8 327.526 328.2C328.192 327.6 329.126 327.3 330.326 327.3H336.726V316.4C336.726 314.867 337.126 313.733 337.926 313C338.726 312.2 339.859 311.8 341.326 311.8C342.792 311.8 343.892 312.2 344.626 313C345.426 313.733 345.826 314.867 345.826 316.4V327.3H357.926C359.192 327.3 360.159 327.6 360.826 328.2C361.492 328.8 361.826 329.667 361.826 330.8C361.826 331.867 361.492 332.733 360.826 333.4C360.159 334 359.192 334.3 357.926 334.3H345.826V358.1C345.826 361.767 346.592 364.533 348.126 366.4C349.659 368.267 352.192 369.2 355.726 369.2C356.992 369.2 358.059 369.1 358.926 368.9C359.792 368.633 360.559 368.5 361.226 368.5C361.826 368.433 362.326 368.633 362.726 369.1C363.192 369.567 363.426 370.433 363.426 371.7C363.426 372.633 363.259 373.5 362.926 374.3C362.659 375.033 362.092 375.533 361.226 375.8C360.426 376.067 359.359 376.3 358.026 376.5C356.692 376.767 355.492 376.9 354.426 376.9ZM390.777 376.9C385.977 376.9 381.811 375.867 378.277 373.8C374.744 371.733 372.011 368.8 370.077 365C368.144 361.2 367.177 356.733 367.177 351.6C367.177 347.733 367.711 344.267 368.777 341.2C369.911 338.067 371.511 335.4 373.577 333.2C375.644 331 378.111 329.333 380.977 328.2C383.911 327 387.177 326.4 390.777 326.4C395.577 326.4 399.744 327.433 403.277 329.5C406.811 331.567 409.544 334.5 411.477 338.3C413.411 342.033 414.377 346.467 414.377 351.6C414.377 355.467 413.811 358.967 412.677 362.1C411.611 365.233 410.044 367.9 407.977 370.1C405.911 372.3 403.411 374 400.477 375.2C397.611 376.333 394.377 376.9 390.777 376.9ZM390.777 369.7C393.711 369.7 396.244 369 398.377 367.6C400.577 366.2 402.244 364.167 403.377 361.5C404.577 358.833 405.177 355.533 405.177 351.6C405.177 345.733 403.877 341.267 401.277 338.2C398.677 335.133 395.177 333.6 390.777 333.6C387.911 333.6 385.377 334.3 383.177 335.7C381.044 337.033 379.377 339.033 378.177 341.7C376.977 344.367 376.377 347.667 376.377 351.6C376.377 357.467 377.677 361.967 380.277 365.1C382.944 368.167 386.444 369.7 390.777 369.7ZM443.334 376.9C440.334 376.9 437.301 376.567 434.234 375.9C431.234 375.167 428.401 373.933 425.734 372.2C425.001 371.733 424.468 371.167 424.134 370.5C423.868 369.767 423.768 369.067 423.834 368.4C423.968 367.667 424.268 367.033 424.734 366.5C425.201 365.967 425.768 365.667 426.434 365.6C427.168 365.467 427.934 365.633 428.734 366.1C431.334 367.567 433.834 368.6 436.234 369.2C438.701 369.8 441.134 370.1 443.534 370.1C447.201 370.1 449.968 369.433 451.834 368.1C453.701 366.767 454.634 365 454.634 362.8C454.634 360.933 454.001 359.5 452.734 358.5C451.534 357.433 449.634 356.633 447.034 356.1L437.734 354.2C433.601 353.267 430.468 351.733 428.334 349.6C426.268 347.4 425.234 344.6 425.234 341.2C425.234 338.2 426.034 335.6 427.634 333.4C429.301 331.133 431.601 329.4 434.534 328.2C437.468 327 440.834 326.4 444.634 326.4C447.568 326.4 450.334 326.8 452.934 327.6C455.601 328.333 458.001 329.467 460.134 331C460.934 331.467 461.434 332.067 461.634 332.8C461.901 333.467 461.934 334.167 461.734 334.9C461.601 335.567 461.301 336.133 460.834 336.6C460.368 337.067 459.768 337.367 459.034 337.5C458.301 337.567 457.501 337.367 456.634 336.9C454.701 335.567 452.701 334.633 450.634 334.1C448.634 333.5 446.634 333.2 444.634 333.2C441.034 333.2 438.301 333.9 436.434 335.3C434.634 336.7 433.734 338.533 433.734 340.8C433.734 342.533 434.268 343.967 435.334 345.1C436.468 346.233 438.234 347.067 440.634 347.6L449.934 349.5C454.268 350.433 457.534 351.933 459.734 354C461.934 356 463.034 358.733 463.034 362.2C463.034 366.733 461.234 370.333 457.634 373C454.101 375.6 449.334 376.9 443.334 376.9Z"
        fill="white" />
    <path
        d="M376 143.412C376 199.942 332.911 275 279.75 275C270.32 274.973 260.984 273.499 252.25 270.657C243.476 267.811 233.661 267.811 224.888 270.657C216.11 273.513 206.726 274.988 197.25 275C144.089 275 101 199.942 101 143.412C101 86.8817 144.089 45.7038 197.25 45.7038C206.617 45.7684 215.881 47.266 224.544 50.1157C228.624 35.2704 239.197 22.0772 254.359 12.9107C269.521 3.74414 288.276 -0.793676 307.25 0.113933C311.808 0.113933 316.18 1.56199 319.403 4.13955C322.627 6.7171 324.438 10.213 324.438 13.8582C324.438 17.5035 322.627 20.9994 319.403 23.5769C316.18 26.1545 311.808 27.6025 307.25 27.6025C298.08 26.9556 288.877 28.5167 280.825 32.0853C272.772 35.6538 266.239 41.0667 262.064 47.628C267.836 46.3981 273.777 45.7516 279.75 45.7038C332.911 45.7038 376 86.8955 376 143.412Z"
        fill="white" />
</svg>