<svg width="458" height="402" viewBox="0 0 458 402" fill="none" xmlns="http://www.w3.org/2000/svg">
<path d="M336.042 216.329C324.43 199.53 307.968 187.264 288.937 181.931L288.35 181.794L274.768 206.649C274.745 213.543 269.607 219.114 263.248 219.139C256.912 219.139 251.728 213.518 245.68 196.982C245.68 196.869 245.68 196.719 245.68 196.582C245.68 187.951 239.229 180.969 231.281 180.969C223.332 180.969 216.881 187.964 216.881 196.582V196.994V196.969C210.43 213.518 205.2 219.126 198.875 219.126C192.516 219.102 187.378 213.531 187.355 206.636L174.2 181.731C154.593 187.227 138.143 199.48 126.669 216.029L126.508 216.266C122.038 224.123 119.273 233.578 118.962 243.707V243.794C119.02 245.668 118.962 247.854 118.962 250.04V275.02C118.962 288.821 129.272 300 142.002 300H320.559C333.289 300 343.599 288.821 343.599 275.02V250.04C343.599 247.866 343.542 245.668 343.599 243.794C343.277 233.59 340.512 224.148 335.927 216.054L336.054 216.304L336.042 216.329ZM170.79 66.3849C170.79 102.856 191.756 156.439 231.269 156.439C270.091 156.439 291.748 102.856 291.748 66.3849C291.748 66.1476 291.748 65.8604 291.748 65.5731C291.748 29.3518 264.665 0 231.269 0C197.873 0 170.79 29.3643 170.79 65.5731V66.4224V66.3849Z" fill="white"/>
<path d="M300.204 87.8679C300.204 111.624 313.866 146.546 339.602 146.546C364.888 146.546 379 111.637 379 87.8679C379 87.6681 379 87.4432 379 87.2184C379 63.6246 361.351 44.4897 339.59 44.4897C317.829 44.4897 300.181 63.6246 300.181 87.2184V87.9054V87.8679H300.204Z" fill="white"/>
<path d="M79.023 107.852C79.023 131.608 92.6856 166.531 118.421 166.531C143.707 166.531 157.819 131.621 157.819 107.852C157.819 107.652 157.819 107.427 157.819 107.203C157.819 83.6087 140.17 64.4739 118.409 64.4739C96.6484 64.4739 79 83.6087 79 107.203V107.89V107.852H79.023Z" fill="white"/>
<path d="M13.1 401.7C11.6333 401.7 10.5 401.3 9.7 400.5C8.9 399.633 8.5 398.433 8.5 396.9V335.2C8.5 333.667 8.9 332.5 9.7 331.7C10.5667 330.9 11.7333 330.5 13.2 330.5H37C44.6 330.5 50.4333 332.367 54.5 336.1C58.6333 339.833 60.7 345.067 60.7 351.8C60.7 358.6 58.6333 363.867 54.5 367.6C50.4333 371.333 44.6 373.2 37 373.2H17.8V396.9C17.8 398.433 17.4 399.633 16.6 400.5C15.8667 401.3 14.7 401.7 13.1 401.7ZM17.8 365.7H35.8C41 365.7 44.9 364.533 47.5 362.2C50.1667 359.8 51.5 356.333 51.5 351.8C51.5 347.267 50.1667 343.867 47.5 341.6C44.9 339.267 41 338.1 35.8 338.1H17.8V365.7ZM84.5305 401.9C81.1971 401.9 78.1638 401.233 75.4305 399.9C72.7638 398.567 70.6638 396.767 69.1305 394.5C67.6638 392.233 66.9305 389.7 66.9305 386.9C66.9305 383.3 67.8305 380.467 69.6305 378.4C71.4305 376.333 74.4638 374.867 78.7305 374C82.9971 373.067 88.7305 372.6 95.9305 372.6H100.63V378.4H96.1305C90.9971 378.4 86.9305 378.633 83.9305 379.1C80.9971 379.567 78.9305 380.4 77.7305 381.6C76.5305 382.733 75.9305 384.333 75.9305 386.4C75.9305 389 76.8305 391.133 78.6305 392.8C80.4971 394.467 83.0305 395.3 86.2305 395.3C88.7638 395.3 90.9971 394.7 92.9305 393.5C94.8638 392.233 96.3971 390.567 97.5305 388.5C98.6638 386.367 99.2305 383.933 99.2305 381.2V369.7C99.2305 365.767 98.4305 362.933 96.8305 361.2C95.2305 359.4 92.5305 358.5 88.7305 358.5C86.5305 358.5 84.2638 358.8 81.9305 359.4C79.5971 360 77.1638 360.933 74.6305 362.2C73.6305 362.667 72.7638 362.833 72.0305 362.7C71.2971 362.5 70.6971 362.1 70.2305 361.5C69.8305 360.833 69.5971 360.133 69.5305 359.4C69.5305 358.6 69.6971 357.833 70.0305 357.1C70.4305 356.367 71.0971 355.833 72.0305 355.5C74.9638 354.033 77.8638 353 80.7305 352.4C83.6638 351.733 86.3971 351.4 88.9305 351.4C93.2638 351.4 96.8305 352.1 99.6305 353.5C102.43 354.833 104.53 356.933 105.93 359.8C107.33 362.6 108.03 366.2 108.03 370.6V397C108.03 398.533 107.664 399.7 106.93 400.5C106.197 401.3 105.13 401.7 103.73 401.7C102.397 401.7 101.33 401.3 100.53 400.5C99.7971 399.7 99.4305 398.533 99.4305 397V389.9H100.33C99.7971 392.367 98.7971 394.5 97.3305 396.3C95.8638 398.1 94.0305 399.5 91.8305 400.5C89.6971 401.433 87.2638 401.9 84.5305 401.9ZM143.951 401.9C139.017 401.9 134.751 400.867 131.151 398.8C127.551 396.667 124.784 393.7 122.851 389.9C120.917 386.033 119.951 381.5 119.951 376.3C119.951 372.433 120.484 368.967 121.551 365.9C122.684 362.833 124.284 360.233 126.351 358.1C128.417 355.9 130.917 354.233 133.851 353.1C136.851 351.967 140.217 351.4 143.951 351.4C146.284 351.4 148.751 351.767 151.351 352.5C153.951 353.233 156.351 354.433 158.551 356.1C159.284 356.633 159.751 357.267 159.951 358C160.151 358.667 160.151 359.367 159.951 360.1C159.817 360.833 159.484 361.467 158.951 362C158.484 362.467 157.851 362.733 157.051 362.8C156.317 362.867 155.517 362.633 154.651 362.1C153.051 360.9 151.351 360.033 149.551 359.5C147.817 358.967 146.151 358.7 144.551 358.7C142.084 358.7 139.884 359.1 137.951 359.9C136.084 360.7 134.484 361.867 133.151 363.4C131.884 364.867 130.917 366.7 130.251 368.9C129.584 371.033 129.251 373.533 129.251 376.4C129.251 382.067 130.584 386.533 133.251 389.8C135.917 393 139.684 394.6 144.551 394.6C146.151 394.6 147.817 394.367 149.551 393.9C151.284 393.367 152.984 392.5 154.651 391.3C155.517 390.767 156.317 390.567 157.051 390.7C157.784 390.767 158.384 391.067 158.851 391.6C159.384 392.067 159.717 392.667 159.851 393.4C159.984 394.067 159.917 394.767 159.651 395.5C159.451 396.233 158.984 396.833 158.251 397.3C156.117 398.9 153.784 400.067 151.251 400.8C148.717 401.533 146.284 401.9 143.951 401.9ZM174.335 401.5C172.935 401.5 171.835 401.067 171.035 400.2C170.235 399.333 169.835 398.133 169.835 396.6V356.7C169.835 355.1 170.235 353.9 171.035 353.1C171.835 352.233 172.935 351.8 174.335 351.8C175.802 351.8 176.935 352.233 177.735 353.1C178.535 353.9 178.935 355.1 178.935 356.7V396.6C178.935 398.133 178.535 399.333 177.735 400.2C177.002 401.067 175.868 401.5 174.335 401.5ZM174.335 341C172.535 341 171.102 340.533 170.035 339.6C169.035 338.6 168.535 337.3 168.535 335.7C168.535 333.967 169.035 332.667 170.035 331.8C171.102 330.867 172.535 330.4 174.335 330.4C176.268 330.4 177.702 330.867 178.635 331.8C179.635 332.667 180.135 333.967 180.135 335.7C180.135 337.3 179.635 338.6 178.635 339.6C177.702 340.533 176.268 341 174.335 341ZM216.566 401.9C211.299 401.9 206.766 400.9 202.966 398.9C199.232 396.833 196.332 393.933 194.266 390.2C192.199 386.4 191.166 381.933 191.166 376.8C191.166 371.733 192.166 367.3 194.166 363.5C196.232 359.7 199.032 356.733 202.566 354.6C206.166 352.467 210.266 351.4 214.866 351.4C218.132 351.4 221.066 351.967 223.666 353.1C226.332 354.167 228.599 355.733 230.466 357.8C232.332 359.867 233.732 362.4 234.666 365.4C235.666 368.333 236.166 371.667 236.166 375.4C236.166 376.467 235.832 377.3 235.166 377.9C234.566 378.433 233.666 378.7 232.466 378.7H198.266V372.9H230.166L228.466 374.3C228.466 370.833 227.932 367.9 226.866 365.5C225.866 363.033 224.366 361.167 222.366 359.9C220.432 358.633 217.999 358 215.066 358C211.866 358 209.132 358.767 206.866 360.3C204.599 361.767 202.866 363.867 201.666 366.6C200.466 369.267 199.866 372.367 199.866 375.9V376.5C199.866 382.5 201.299 387.033 204.166 390.1C207.032 393.167 211.166 394.7 216.566 394.7C218.699 394.7 220.866 394.433 223.066 393.9C225.332 393.367 227.499 392.4 229.566 391C230.566 390.4 231.466 390.133 232.266 390.2C233.132 390.2 233.832 390.467 234.366 391C234.899 391.467 235.232 392.067 235.366 392.8C235.499 393.467 235.399 394.2 235.066 395C234.732 395.8 234.099 396.5 233.166 397.1C230.966 398.633 228.332 399.833 225.266 400.7C222.266 401.5 219.366 401.9 216.566 401.9ZM252.484 401.7C251.084 401.7 249.984 401.3 249.184 400.5C248.384 399.7 247.984 398.533 247.984 397V356.2C247.984 354.667 248.384 353.533 249.184 352.8C249.984 352 251.084 351.6 252.484 351.6C253.884 351.6 254.95 352 255.684 352.8C256.484 353.533 256.884 354.667 256.884 356.2V364.4L255.784 362.9C257.184 359.1 259.45 356.233 262.584 354.3C265.784 352.367 269.417 351.4 273.484 351.4C277.417 351.4 280.65 352.1 283.184 353.5C285.717 354.9 287.617 357.033 288.884 359.9C290.15 362.767 290.784 366.4 290.784 370.8V397C290.784 398.533 290.384 399.7 289.584 400.5C288.85 401.3 287.75 401.7 286.284 401.7C284.817 401.7 283.684 401.3 282.884 400.5C282.084 399.7 281.684 398.533 281.684 397V371.3C281.684 366.967 280.85 363.8 279.184 361.8C277.517 359.8 274.85 358.8 271.184 358.8C266.917 358.8 263.484 360.133 260.884 362.8C258.35 365.4 257.084 368.933 257.084 373.4V397C257.084 400.133 255.55 401.7 252.484 401.7ZM325.91 401.9C321.977 401.9 318.677 401.2 316.01 399.8C313.41 398.4 311.443 396.367 310.11 393.7C308.843 391.033 308.21 387.767 308.21 383.9V359.3H301.81C300.61 359.3 299.677 359 299.01 358.4C298.343 357.733 298.01 356.867 298.01 355.8C298.01 354.667 298.343 353.8 299.01 353.2C299.677 352.6 300.61 352.3 301.81 352.3H308.21V341.4C308.21 339.867 308.61 338.733 309.41 338C310.21 337.2 311.343 336.8 312.81 336.8C314.277 336.8 315.377 337.2 316.11 338C316.91 338.733 317.31 339.867 317.31 341.4V352.3H329.41C330.677 352.3 331.643 352.6 332.31 353.2C332.977 353.8 333.31 354.667 333.31 355.8C333.31 356.867 332.977 357.733 332.31 358.4C331.643 359 330.677 359.3 329.41 359.3H317.31V383.1C317.31 386.767 318.077 389.533 319.61 391.4C321.143 393.267 323.677 394.2 327.21 394.2C328.477 394.2 329.543 394.1 330.41 393.9C331.277 393.633 332.043 393.5 332.71 393.5C333.31 393.433 333.81 393.633 334.21 394.1C334.677 394.567 334.91 395.433 334.91 396.7C334.91 397.633 334.743 398.5 334.41 399.3C334.143 400.033 333.577 400.533 332.71 400.8C331.91 401.067 330.843 401.3 329.51 401.5C328.177 401.767 326.977 401.9 325.91 401.9ZM364.062 401.9C358.795 401.9 354.262 400.9 350.462 398.9C346.728 396.833 343.828 393.933 341.762 390.2C339.695 386.4 338.662 381.933 338.662 376.8C338.662 371.733 339.662 367.3 341.662 363.5C343.728 359.7 346.528 356.733 350.062 354.6C353.662 352.467 357.762 351.4 362.362 351.4C365.628 351.4 368.562 351.967 371.162 353.1C373.828 354.167 376.095 355.733 377.962 357.8C379.828 359.867 381.228 362.4 382.162 365.4C383.162 368.333 383.662 371.667 383.662 375.4C383.662 376.467 383.328 377.3 382.662 377.9C382.062 378.433 381.162 378.7 379.962 378.7H345.762V372.9H377.662L375.962 374.3C375.962 370.833 375.428 367.9 374.362 365.5C373.362 363.033 371.862 361.167 369.862 359.9C367.928 358.633 365.495 358 362.562 358C359.362 358 356.628 358.767 354.362 360.3C352.095 361.767 350.362 363.867 349.162 366.6C347.962 369.267 347.362 372.367 347.362 375.9V376.5C347.362 382.5 348.795 387.033 351.662 390.1C354.528 393.167 358.662 394.7 364.062 394.7C366.195 394.7 368.362 394.433 370.562 393.9C372.828 393.367 374.995 392.4 377.062 391C378.062 390.4 378.962 390.133 379.762 390.2C380.628 390.2 381.328 390.467 381.862 391C382.395 391.467 382.728 392.067 382.862 392.8C382.995 393.467 382.895 394.2 382.562 395C382.228 395.8 381.595 396.5 380.662 397.1C378.462 398.633 375.828 399.833 372.762 400.7C369.762 401.5 366.862 401.9 364.062 401.9ZM412.28 401.9C409.28 401.9 406.246 401.567 403.18 400.9C400.18 400.167 397.346 398.933 394.68 397.2C393.946 396.733 393.413 396.167 393.08 395.5C392.813 394.767 392.713 394.067 392.78 393.4C392.913 392.667 393.213 392.033 393.68 391.5C394.146 390.967 394.713 390.667 395.38 390.6C396.113 390.467 396.88 390.633 397.68 391.1C400.28 392.567 402.78 393.6 405.18 394.2C407.646 394.8 410.08 395.1 412.48 395.1C416.146 395.1 418.913 394.433 420.78 393.1C422.646 391.767 423.58 390 423.58 387.8C423.58 385.933 422.946 384.5 421.68 383.5C420.48 382.433 418.58 381.633 415.98 381.1L406.68 379.2C402.546 378.267 399.413 376.733 397.28 374.6C395.213 372.4 394.18 369.6 394.18 366.2C394.18 363.2 394.98 360.6 396.58 358.4C398.246 356.133 400.546 354.4 403.48 353.2C406.413 352 409.78 351.4 413.58 351.4C416.513 351.4 419.28 351.8 421.88 352.6C424.546 353.333 426.946 354.467 429.08 356C429.88 356.467 430.38 357.067 430.58 357.8C430.846 358.467 430.88 359.167 430.68 359.9C430.546 360.567 430.246 361.133 429.78 361.6C429.313 362.067 428.713 362.367 427.98 362.5C427.246 362.567 426.446 362.367 425.58 361.9C423.646 360.567 421.646 359.633 419.58 359.1C417.58 358.5 415.58 358.2 413.58 358.2C409.98 358.2 407.246 358.9 405.38 360.3C403.58 361.7 402.68 363.533 402.68 365.8C402.68 367.533 403.213 368.967 404.28 370.1C405.413 371.233 407.18 372.067 409.58 372.6L418.88 374.5C423.213 375.433 426.48 376.933 428.68 379C430.88 381 431.98 383.733 431.98 387.2C431.98 391.733 430.18 395.333 426.58 398C423.046 400.6 418.28 401.9 412.28 401.9Z" fill="white"/>
</svg>
