<svg width="291" height="386" viewBox="0 0 291 386" fill="none" xmlns="http://www.w3.org/2000/svg">
<path d="M29.1 382.7C27.6333 382.7 26.5 382.3 25.7 381.5C24.9 380.633 24.5 379.433 24.5 377.9V316.2C24.5 314.667 24.9 313.5 25.7 312.7C26.5667 311.9 27.7333 311.5 29.2 311.5H53C60.6 311.5 66.4333 313.367 70.5 317.1C74.6333 320.833 76.7 326.067 76.7 332.8C76.7 339.6 74.6333 344.867 70.5 348.6C66.4333 352.333 60.6 354.2 53 354.2H33.8V377.9C33.8 379.433 33.4 380.633 32.6 381.5C31.8667 382.3 30.7 382.7 29.1 382.7ZM33.8 346.7H51.8C57 346.7 60.9 345.533 63.5 343.2C66.1667 340.8 67.5 337.333 67.5 332.8C67.5 328.267 66.1667 324.867 63.5 322.6C60.9 320.267 57 319.1 51.8 319.1H33.8V346.7ZM107.726 382.9C102.459 382.9 97.9258 381.9 94.1258 379.9C90.3924 377.833 87.4924 374.933 85.4258 371.2C83.3591 367.4 82.3258 362.933 82.3258 357.8C82.3258 352.733 83.3258 348.3 85.3258 344.5C87.3924 340.7 90.1924 337.733 93.7258 335.6C97.3258 333.467 101.426 332.4 106.026 332.4C109.292 332.4 112.226 332.967 114.826 334.1C117.492 335.167 119.759 336.733 121.626 338.8C123.492 340.867 124.892 343.4 125.826 346.4C126.826 349.333 127.326 352.667 127.326 356.4C127.326 357.467 126.992 358.3 126.326 358.9C125.726 359.433 124.826 359.7 123.626 359.7H89.4258V353.9H121.326L119.626 355.3C119.626 351.833 119.092 348.9 118.026 346.5C117.026 344.033 115.526 342.167 113.526 340.9C111.592 339.633 109.159 339 106.226 339C103.026 339 100.292 339.767 98.0258 341.3C95.7591 342.767 94.0258 344.867 92.8258 347.6C91.6258 350.267 91.0258 353.367 91.0258 356.9V357.5C91.0258 363.5 92.4591 368.033 95.3258 371.1C98.1924 374.167 102.326 375.7 107.726 375.7C109.859 375.7 112.026 375.433 114.226 374.9C116.492 374.367 118.659 373.4 120.726 372C121.726 371.4 122.626 371.133 123.426 371.2C124.292 371.2 124.992 371.467 125.526 372C126.059 372.467 126.392 373.067 126.526 373.8C126.659 374.467 126.559 375.2 126.226 376C125.892 376.8 125.259 377.5 124.326 378.1C122.126 379.633 119.492 380.833 116.426 381.7C113.426 382.5 110.526 382.9 107.726 382.9ZM143.844 382.7C142.31 382.7 141.144 382.3 140.344 381.5C139.544 380.7 139.144 379.533 139.144 378V337.2C139.144 335.667 139.544 334.533 140.344 333.8C141.144 333 142.244 332.6 143.644 332.6C145.044 332.6 146.11 333 146.844 333.8C147.644 334.533 148.044 335.667 148.044 337.2V344.9H147.044C148.11 340.9 150.11 337.867 153.044 335.8C155.977 333.733 159.677 332.567 164.144 332.3C165.21 332.233 166.077 332.5 166.744 333.1C167.41 333.633 167.777 334.567 167.844 335.9C167.91 337.167 167.61 338.2 166.944 339C166.277 339.733 165.244 340.167 163.844 340.3L162.044 340.4C157.644 340.867 154.244 342.3 151.844 344.7C149.51 347.1 148.344 350.4 148.344 354.6V378C148.344 379.533 147.944 380.7 147.144 381.5C146.41 382.3 145.31 382.7 143.844 382.7ZM186.302 382.7C184.835 382.7 183.702 382.3 182.902 381.5C182.102 380.7 181.702 379.533 181.702 378V340.3H175.702C174.502 340.3 173.568 340 172.902 339.4C172.235 338.733 171.902 337.867 171.902 336.8C171.902 335.667 172.235 334.8 172.902 334.2C173.568 333.6 174.502 333.3 175.702 333.3H184.202L181.702 335.7V332C181.702 325.6 183.235 320.733 186.302 317.4C189.435 314.067 194.068 312.1 200.202 311.5L203.102 311.3C204.235 311.167 205.135 311.333 205.802 311.8C206.468 312.2 206.902 312.733 207.102 313.4C207.368 314.067 207.402 314.767 207.202 315.5C207.068 316.233 206.768 316.867 206.302 317.4C205.835 317.933 205.235 318.2 204.502 318.2L201.702 318.4C197.902 318.667 195.135 319.833 193.402 321.9C191.668 323.967 190.802 326.933 190.802 330.8V334.8L189.502 333.3H216.802C218.268 333.3 219.368 333.733 220.102 334.6C220.902 335.4 221.302 336.6 221.302 338.2V377.6C221.302 379.133 220.935 380.333 220.202 381.2C219.468 382.067 218.335 382.5 216.802 382.5C215.335 382.5 214.202 382.067 213.402 381.2C212.602 380.333 212.202 379.133 212.202 377.6V340.3H190.802V378C190.802 381.133 189.302 382.7 186.302 382.7ZM216.902 322C215.168 322 213.802 321.533 212.802 320.6C211.802 319.6 211.302 318.3 211.302 316.7C211.302 314.967 211.802 313.667 212.802 312.8C213.802 311.867 215.168 311.4 216.902 311.4C218.768 311.4 220.168 311.867 221.102 312.8C222.102 313.667 222.602 314.967 222.602 316.7C222.602 318.3 222.102 319.6 221.102 320.6C220.168 321.533 218.768 322 216.902 322ZM251.733 382.9C246.733 382.9 242.933 381.433 240.333 378.5C237.733 375.5 236.433 371.2 236.433 365.6V315.4C236.433 313.867 236.833 312.733 237.633 312C238.433 311.2 239.533 310.8 240.933 310.8C242.399 310.8 243.533 311.2 244.333 312C245.133 312.733 245.533 313.867 245.533 315.4V364.9C245.533 368.367 246.233 370.967 247.633 372.7C249.099 374.367 251.166 375.2 253.833 375.2C254.433 375.2 254.966 375.2 255.433 375.2C255.899 375.133 256.366 375.067 256.833 375C257.566 374.933 258.099 375.133 258.433 375.6C258.766 376.067 258.933 377 258.933 378.4C258.933 379.667 258.633 380.667 258.033 381.4C257.499 382.067 256.599 382.5 255.333 382.7C254.733 382.767 254.133 382.8 253.533 382.8C252.933 382.867 252.333 382.9 251.733 382.9Z" fill="white"/>
<path d="M145.161 0C65.0323 0 0 65.0323 0 145.161C0 225.29 65.0323 290.323 145.161 290.323C225.29 290.323 290.323 225.29 290.323 145.161C290.323 65.0323 225.29 0 145.161 0ZM145.161 43.5484C169.258 43.5484 188.71 63 188.71 87.0968C188.71 111.194 169.258 130.645 145.161 130.645C121.065 130.645 101.613 111.194 101.613 87.0968C101.613 63 121.065 43.5484 145.161 43.5484ZM145.161 249.677C108.871 249.677 76.7903 231.097 58.0645 202.935C58.5 174.048 116.129 158.226 145.161 158.226C174.048 158.226 231.823 174.048 232.258 202.935C213.532 231.097 181.452 249.677 145.161 249.677Z" fill="white"/>
</svg>
